<svg width="231" height="122" viewBox="0 0 231 122" fill="none" xmlns="http://www.w3.org/2000/svg">
<g filter="url(#filter0_f_1_363)">
<path d="M95.14 43.65C92.8 39.1433 89.55 35.7633 85.39 33.51C81.23 31.17 76.42 30 70.96 30C64.98 30 59.65 31.3433 54.97 34.03C50.29 36.7167 46.6067 40.53 43.92 45.47C41.32 50.41 40.02 56.13 40.02 62.63C40.02 69.13 41.32 74.8933 43.92 79.92C46.6067 84.86 50.29 88.6733 54.97 91.36C59.65 94.0467 64.98 95.39 70.96 95.39C79.02 95.39 85.5633 93.1367 90.59 88.63C95.6167 84.1233 98.6933 78.0133 99.82 70.3H65.89V58.47H115.68V70.04C114.727 77.06 112.213 83.5167 108.14 89.41C104.153 95.3033 98.91 100.027 92.41 103.58C85.9967 107.047 78.8467 108.78 70.96 108.78C62.4667 108.78 54.71 106.83 47.69 102.93C40.67 98.9433 35.08 93.44 30.92 86.42C26.8467 79.4 24.81 71.47 24.81 62.63C24.81 53.79 26.8467 45.86 30.92 38.84C35.08 31.82 40.67 26.36 47.69 22.46C54.7967 18.4733 62.5533 16.48 70.96 16.48C80.58 16.48 89.1167 18.8633 96.57 23.63C104.11 28.31 109.57 34.9833 112.95 43.65H95.14ZM171.507 108.91C163.1 108.91 155.344 106.96 148.237 103.06C141.217 99.0733 135.627 93.57 131.467 86.55C127.394 79.4433 125.357 71.47 125.357 62.63C125.357 53.79 127.394 45.86 131.467 38.84C135.627 31.82 141.217 26.36 148.237 22.46C155.344 18.4733 163.1 16.48 171.507 16.48C180 16.48 187.757 18.4733 194.777 22.46C201.884 26.36 207.474 31.82 211.547 38.84C215.62 45.86 217.657 53.79 217.657 62.63C217.657 71.47 215.62 79.4433 211.547 86.55C207.474 93.57 201.884 99.0733 194.777 103.06C187.757 106.96 180 108.91 171.507 108.91ZM171.507 96.04C177.487 96.04 182.817 94.6967 187.497 92.01C192.177 89.2367 195.817 85.3367 198.417 80.31C201.104 75.1967 202.447 69.3033 202.447 62.63C202.447 55.9567 201.104 50.1067 198.417 45.08C195.817 40.0533 192.177 36.1967 187.497 33.51C182.817 30.8233 177.487 29.48 171.507 29.48C165.527 29.48 160.197 30.8233 155.517 33.51C150.837 36.1967 147.154 40.0533 144.467 45.08C141.867 50.1067 140.567 55.9567 140.567 62.63C140.567 69.3033 141.867 75.1967 144.467 80.31C147.154 85.3367 150.837 89.2367 155.517 92.01C160.197 94.6967 165.527 96.04 171.507 96.04Z" fill="#482121"/>
</g>
<path d="M87.984 50.64C85.68 46.2027 82.48 42.8747 78.384 40.656C74.288 38.352 69.552 37.2 64.176 37.2C58.288 37.2 53.04 38.5227 48.432 41.168C43.824 43.8133 40.1973 47.568 37.552 52.432C34.992 57.296 33.712 62.928 33.712 69.328C33.712 75.728 34.992 81.4027 37.552 86.352C40.1973 91.216 43.824 94.9707 48.432 97.616C53.04 100.261 58.288 101.584 64.176 101.584C72.112 101.584 78.5547 99.3653 83.504 94.928C88.4533 90.4907 91.4827 84.4747 92.592 76.88H59.184V65.232H108.208V76.624C107.269 83.536 104.795 89.8933 100.784 95.696C96.8587 101.499 91.696 106.149 85.296 109.648C78.9813 113.061 71.9413 114.768 64.176 114.768C55.8133 114.768 48.176 112.848 41.264 109.008C34.352 105.083 28.848 99.664 24.752 92.752C20.7413 85.84 18.736 78.032 18.736 69.328C18.736 60.624 20.7413 52.816 24.752 45.904C28.848 38.992 34.352 33.616 41.264 29.776C48.2613 25.8507 55.8987 23.888 64.176 23.888C73.648 23.888 82.0533 26.2347 89.392 30.928C96.816 35.536 102.192 42.1067 105.52 50.64H87.984ZM163.176 114.896C154.899 114.896 147.261 112.976 140.264 109.136C133.352 105.211 127.848 99.792 123.752 92.88C119.741 85.8827 117.736 78.032 117.736 69.328C117.736 60.624 119.741 52.816 123.752 45.904C127.848 38.992 133.352 33.616 140.264 29.776C147.261 25.8507 154.899 23.888 163.176 23.888C171.539 23.888 179.176 25.8507 186.088 29.776C193.085 33.616 198.589 38.992 202.6 45.904C206.611 52.816 208.616 60.624 208.616 69.328C208.616 78.032 206.611 85.8827 202.6 92.88C198.589 99.792 193.085 105.211 186.088 109.136C179.176 112.976 171.539 114.896 163.176 114.896ZM163.176 102.224C169.064 102.224 174.312 100.901 178.92 98.256C183.528 95.5253 187.112 91.6853 189.672 86.736C192.317 81.7013 193.64 75.8987 193.64 69.328C193.64 62.7573 192.317 56.9973 189.672 52.048C187.112 47.0987 183.528 43.3013 178.92 40.656C174.312 38.0107 169.064 36.688 163.176 36.688C157.288 36.688 152.04 38.0107 147.432 40.656C142.824 43.3013 139.197 47.0987 136.552 52.048C133.992 56.9973 132.712 62.7573 132.712 69.328C132.712 75.8987 133.992 81.7013 136.552 86.736C139.197 91.6853 142.824 95.5253 147.432 98.256C152.04 100.901 157.288 102.224 163.176 102.224Z" fill="#482121"/>
<path d="M29.312 45L12.096 25.096V45H4.8V0.519997H12.096V20.808L29.376 0.519997H38.528L19.2 22.792L38.848 45H29.312ZM63.092 9.16C65.8653 9.16 68.34 9.736 70.516 10.888C72.7347 12.04 74.4627 13.7467 75.7 16.008C76.9373 18.2693 77.556 21 77.556 24.2V45H70.324V25.288C70.324 22.1307 69.5347 19.72 67.956 18.056C66.3773 16.3493 64.2227 15.496 61.492 15.496C58.7613 15.496 56.5853 16.3493 54.964 18.056C53.3853 19.72 52.596 22.1307 52.596 25.288V45H45.3V9.736H52.596V13.768C53.7907 12.3173 55.3053 11.1867 57.14 10.376C59.0173 9.56533 61.0013 9.16 63.092 9.16ZM102.159 45.576C98.8305 45.576 95.8225 44.8293 93.1345 43.336C90.4465 41.8 88.3345 39.6667 86.7985 36.936C85.2625 34.1627 84.4945 30.9627 84.4945 27.336C84.4945 23.752 85.2838 20.5733 86.8625 17.8C88.4412 15.0267 90.5958 12.8933 93.3265 11.4C96.0572 9.90667 99.1078 9.16 102.479 9.16C105.849 9.16 108.9 9.90667 111.631 11.4C114.361 12.8933 116.516 15.0267 118.095 17.8C119.673 20.5733 120.463 23.752 120.463 27.336C120.463 30.92 119.652 34.0987 118.031 36.872C116.409 39.6453 114.191 41.8 111.375 43.336C108.601 44.8293 105.529 45.576 102.159 45.576ZM102.159 39.24C104.036 39.24 105.785 38.792 107.407 37.896C109.071 37 110.415 35.656 111.439 33.864C112.463 32.072 112.975 29.896 112.975 27.336C112.975 24.776 112.484 22.6213 111.503 20.872C110.521 19.08 109.22 17.736 107.599 16.84C105.977 15.944 104.228 15.496 102.351 15.496C100.473 15.496 98.7238 15.944 97.1025 16.84C95.5238 17.736 94.2652 19.08 93.3265 20.872C92.3878 22.6213 91.9185 24.776 91.9185 27.336C91.9185 31.1333 92.8785 34.0773 94.7985 36.168C96.7612 38.216 99.2145 39.24 102.159 39.24ZM175.035 9.736L164.091 45H156.411L149.307 18.952L142.203 45H134.523L123.515 9.736H130.939L138.299 38.088L145.787 9.736H153.403L160.571 37.96L167.867 9.736H175.035Z" fill="white"/>
<defs>
<filter id="filter0_f_1_363" x="12.1101" y="3.77999" width="218.247" height="117.83" filterUnits="userSpaceOnUse" color-interpolation-filters="sRGB">
<feFlood flood-opacity="0" result="BackgroundImageFix"/>
<feBlend mode="normal" in="SourceGraphic" in2="BackgroundImageFix" result="shape"/>
<feGaussianBlur stdDeviation="6.35" result="effect1_foregroundBlur_1_363"/>
</filter>
</defs>
</svg>
